<?xml version="1.0" standalone="no"?>
<!DOCTYPE svg PUBLIC "-//W3C//DTD SVG 20010904//EN"
 "http://www.w3.org/TR/2001/REC-SVG-20010904/DTD/svg10.dtd">
<svg version="1.0" xmlns="http://www.w3.org/2000/svg"
 width="460.000000pt" height="460.000000pt" viewBox="0 0 460.000000 460.000000"
 preserveAspectRatio="xMidYMid meet">
<metadata>
Created by potrace 1.11, written by Peter Selinger 2001-2013
</metadata>
<g transform="translate(0.000000,460.000000) scale(0.100000,-0.100000)"
fill="#000000" stroke="none">
<path d="M2000 4199 c-80 -8 -163 -31 -185 -50 -5 -5 0 -9 14 -9 36 0 14 -18
-32 -25 -23 -4 -59 -18 -79 -31 -21 -13 -42 -24 -47 -24 -6 0 -16 -9 -24 -20
-7 -10 -32 -23 -56 -29 -48 -10 -91 -45 -91 -72 0 -10 -9 -21 -20 -24 -11 -3
-20 -15 -20 -26 0 -10 -6 -19 -13 -19 -15 0 -65 -40 -51 -40 5 0 -8 -11 -28
-23 l-37 -23 19 -29 c13 -20 16 -34 9 -46 -5 -10 -9 -27 -9 -38 0 -12 -4 -21
-10 -21 -5 0 -10 -7 -10 -17 0 -15 1 -15 18 0 10 10 24 17 31 17 17 0 -9 -46
-53 -93 -20 -21 -37 -48 -37 -60 -1 -12 -2 -33 -3 -47 -1 -14 -7 -25 -13 -25
-7 0 -13 -4 -12 -9 0 -5 -3 -12 -8 -15 -5 -3 -19 -23 -32 -43 -29 -49 -17 -70
15 -27 25 34 32 33 14 -2 -8 -13 -7 -19 0 -19 7 0 3 -12 -7 -27 -28 -41 -44
-83 -33 -83 9 0 4 -145 -5 -161 -13 -20 30 -293 45 -284 3 2 6 -15 7 -38 1
-23 4 -82 5 -132 2 -49 7 -97 10 -105 3 -8 14 -44 23 -80 19 -70 30 -90 51
-90 11 0 14 17 14 70 0 79 20 210 32 210 4 0 8 -5 8 -11 0 -27 75 -168 107
-201 90 -92 268 -126 391 -74 34 15 83 42 108 61 25 19 50 33 55 29 5 -3 9 0
9 7 0 7 3 10 6 6 8 -8 42 23 64 58 43 71 91 271 72 302 -4 6 -18 14 -31 18
-26 8 -81 59 -81 75 0 6 -5 10 -12 10 -6 0 -9 2 -6 5 7 7 -58 75 -72 75 -6 0
-22 7 -35 16 -14 9 -51 20 -82 24 -32 5 -99 14 -148 21 -101 14 -141 4 -160
-39 -5 -12 -17 -22 -27 -22 -25 0 -49 -11 -43 -20 3 -5 15 -6 28 -3 19 4 18 2
-5 -12 -16 -8 -28 -20 -28 -25 0 -6 -7 -10 -16 -10 -8 0 -13 4 -9 9 3 5 1 12
-4 15 -5 4 -8 -2 -7 -11 3 -19 -28 -42 -56 -43 -10 0 -18 6 -18 13 -4 122 -2
238 3 244 12 11 8 23 -7 23 -19 0 -29 30 -15 47 7 7 9 16 5 20 -3 3 2 15 11
25 14 15 15 21 4 27 -10 7 -10 13 -2 29 9 16 8 24 -4 36 -8 8 -11 17 -6 20 8
6 25 64 22 79 -1 5 2 6 7 3 4 -2 13 4 20 15 7 10 8 19 3 19 -6 0 -3 15 6 33
77 154 59 139 173 141 74 2 122 20 143 53 5 8 12 11 18 8 5 -4 9 -2 9 3 0 5
14 9 32 10 18 0 50 8 73 18 92 38 112 45 163 54 30 5 65 19 78 29 14 11 32 17
40 14 8 -3 14 -1 14 4 0 10 57 18 201 29 37 2 77 7 90 10 46 11 285 13 334 3
28 -6 61 -12 75 -15 93 -19 219 -123 268 -221 9 -18 19 -33 23 -33 4 0 10 -11
13 -24 11 -43 106 -121 106 -86 0 6 -4 10 -10 10 -15 0 -12 40 3 41 6 1 22 0
34 0 12 -1 26 5 31 15 12 22 4 54 -14 54 -9 0 -14 11 -14 30 0 17 -6 33 -14
36 -8 3 -17 16 -20 29 -3 13 -18 30 -34 37 -16 8 -26 21 -25 32 1 13 -2 15
-10 7 -18 -18 -27 -13 -27 15 0 14 -4 23 -9 19 -5 -3 -27 15 -48 40 -20 25
-43 43 -50 41 -6 -3 -27 13 -45 34 -18 21 -49 57 -68 79 -19 23 -39 41 -44 41
-5 0 -20 10 -33 22 -19 17 -23 19 -17 5 9 -24 -3 -21 -38 8 -43 36 -132 54
-371 75 -163 14 -292 32 -297 41 -9 14 -89 17 -180 8z m319 -51 c11 -11 12
-10 6 0 -6 11 -3 12 11 4 11 -5 47 -12 82 -16 35 -4 73 -11 85 -16 18 -7 14
-9 -20 -9 -30 -1 -43 -5 -43 -15 0 -8 -6 -17 -12 -19 -7 -3 25 -6 72 -7 141
-2 186 -10 141 -25 -12 -3 -21 -14 -20 -23 0 -11 3 -12 6 -4 7 17 23 15 23 -2
0 -10 -16 -17 -47 -21 -27 -3 -82 -10 -124 -16 -139 -20 -288 3 -264 40 6 11
-4 14 -35 12 -10 0 -11 1 -2 5 6 3 10 10 6 15 -4 8 69 15 117 11 12 -1 16 6
15 23 -1 23 -16 37 -16 15 0 -5 -7 -10 -15 -10 -8 0 -15 6 -15 14 0 16 -80 33
-99 21 -6 -3 -11 -2 -11 2 0 5 -12 8 -27 7 -16 0 -37 2 -48 5 -11 3 25 9 80
12 55 3 109 6 121 7 11 1 26 -4 33 -10z m291 -44 c0 -2 -9 -4 -20 -4 -11 0
-20 4 -20 9 0 5 9 7 20 4 11 -3 20 -7 20 -9z m-362 -1 c-10 -2 -26 -2 -35 0
-10 3 -2 5 17 5 19 0 27 -2 18 -5z m672 -88 c0 -5 -5 -3 -10 5 -5 8 -10 20
-10 25 0 6 5 3 10 -5 5 -8 10 -19 10 -25z m-230 5 c0 -5 -7 -10 -15 -10 -8 0
-15 5 -15 10 0 6 7 10 15 10 8 0 15 -4 15 -10z m-933 -1134 c-7 -17 22 -25
108 -33 76 -6 88 -17 40 -38 -31 -12 -40 -13 -47 -3 -4 8 -8 8 -8 2 0 -6 -36
-16 -81 -23 -65 -10 -86 -10 -110 1 -16 7 -29 16 -29 20 0 15 43 46 80 57 22
6 40 16 40 21 0 6 3 10 6 10 3 0 4 -6 1 -14z m-273 -72 l-49 -46 -3 -81 c-2
-45 1 -93 7 -107 9 -24 10 -24 11 10 5 81 11 106 32 122 22 16 23 15 45 -24
13 -22 23 -49 23 -59 0 -11 8 -20 18 -21 9 0 24 -1 32 -2 8 -1 16 -9 18 -19 2
-9 8 -17 14 -17 6 0 23 -14 38 -30 24 -26 34 -30 85 -31 45 -1 59 -5 62 -19 6
-22 140 -55 190 -45 l35 6 -21 -29 c-59 -84 -148 -126 -266 -126 -104 0 -168
25 -235 93 -67 68 -101 145 -108 249 -6 90 14 149 66 192 56 46 60 36 6 -16z
m-217 -36 c-3 -8 -6 -5 -6 6 -1 11 2 17 5 13 3 -3 4 -12 1 -19z m620 6 c12 -3
24 -12 27 -19 4 -11 -11 -14 -72 -12 -42 0 -88 -3 -102 -7 -22 -8 -23 -7 -11
8 23 28 106 44 158 30z m23 -114 c0 -5 -4 -10 -10 -10 -5 0 -10 5 -10 10 0 6
5 10 10 10 6 0 10 -4 10 -10z"/>
<path d="M2448 4193 c7 -3 16 -2 19 1 4 3 -2 6 -13 5 -11 0 -14 -3 -6 -6z"/>
<path d="M2523 4184 c3 -3 33 -12 67 -19 70 -15 72 -7 2 12 -52 13 -79 16 -69
7z"/>
<path d="M2674 4146 c23 -18 36 -20 36 -6 0 6 -4 10 -9 10 -5 0 -18 3 -28 6
-16 5 -16 4 1 -10z"/>
<path d="M2702 2976 c-19 -5 -40 -21 -50 -38 -9 -15 -24 -28 -32 -28 -9 0 -29
-13 -45 -30 -16 -16 -33 -30 -38 -30 -5 0 -37 -21 -70 -46 -50 -37 -65 -44
-86 -38 -34 10 -101 11 -101 2 0 -5 1 -8 3 -9 1 0 25 -6 52 -13 36 -9 53 -20
62 -37 14 -31 23 -109 12 -109 -5 0 -9 5 -9 12 0 6 -3 9 -6 5 -3 -3 -3 -19 1
-36 4 -21 13 -31 25 -31 10 0 22 -9 25 -20 9 -28 71 -119 107 -157 17 -17 58
-44 92 -59 52 -24 74 -29 146 -29 47 0 105 6 129 13 66 20 43 25 -30 6 -116
-30 -270 8 -341 83 -30 32 -103 171 -94 180 3 4 6 0 6 -7 0 -11 3 -11 11 -3
15 15 3 47 -16 40 -20 -8 -31 74 -16 124 30 101 200 177 411 184 91 3 112 1
159 -18 121 -49 167 -141 143 -284 -6 -37 -10 -68 -8 -70 2 -2 15 41 29 94 17
61 34 103 46 113 11 8 21 30 23 50 3 35 3 35 -57 51 -68 18 -151 54 -160 69
-3 5 -15 10 -25 10 -10 0 -25 7 -34 15 -8 8 -23 15 -33 16 -10 0 -13 3 -5 6 6
2 12 8 12 13 0 11 -49 19 -55 9 -5 -7 -23 -6 -125 4 -14 2 -40 -1 -58 -7z"/>
<path d="M3294 2929 c2 -25 9 -56 16 -70 13 -23 12 -24 -7 -6 -20 17 -20 16
-22 -40 -1 -36 -7 -60 -15 -65 -11 -6 -11 -17 1 -65 8 -32 14 -69 14 -83 0
-21 16 -131 34 -242 2 -15 1 -29 -4 -32 -8 -5 -13 -96 -6 -96 9 0 55 52 55 61
0 6 -4 8 -9 5 -4 -3 0 25 11 62 21 73 23 117 7 205 -11 61 -6 82 17 73 8 -3
14 1 15 12 1 9 5 4 10 -13 8 -30 8 -26 -4 65 -1 8 -7 24 -14 35 -6 11 -12 25
-13 30 -2 6 -4 15 -5 20 -12 40 -12 53 0 49 7 -3 14 5 17 20 3 14 1 23 -3 20
-5 -3 -9 1 -9 9 0 8 -12 23 -27 33 -15 9 -35 27 -45 38 -16 20 -17 20 -14 -25z
m50 -181 c-12 -19 -44 13 -44 44 l0 32 25 -34 c13 -18 22 -37 19 -42z"/>
<path d="M2640 2794 c-19 -7 -43 -13 -53 -13 -10 -1 -20 -8 -23 -16 -4 -8 -13
-15 -21 -15 -8 0 -11 -4 -8 -10 3 -5 2 -10 -2 -10 -5 0 -9 -16 -9 -35 0 -32 6
-40 28 -36 8 1 -4 -36 -22 -70 -19 -35 13 -52 118 -63 29 -3 32 -1 32 25 0 27
1 28 49 24 46 -4 51 -2 80 31 17 19 31 45 31 58 0 12 3 26 6 29 11 10 64 -26
64 -43 0 -11 11 -15 40 -16 47 -2 51 9 13 33 -16 10 -36 25 -46 34 -17 16
-102 40 -147 43 -27 1 -53 36 -32 43 6 3 12 9 12 14 0 13 -69 9 -110 -7z m13
-131 c2 -10 8 -26 12 -35 5 -14 2 -18 -13 -18 -27 0 -35 15 -28 46 7 28 22 32
29 7z m151 -4 c-8 -14 -24 -10 -24 6 0 9 6 12 15 9 8 -4 12 -10 9 -15z m-137
-101 c-3 -8 -6 -5 -6 6 -1 11 2 17 5 13 3 -3 4 -12 1 -19z"/>
<path d="M3502 2556 c-1 -14 2 -26 7 -26 5 0 8 -11 7 -24 -2 -14 1 -30 6 -38
5 -8 8 5 6 35 -2 55 -22 96 -26 53z"/>
<path d="M1225 2520 c-8 -14 4 -110 14 -110 12 0 13 108 2 114 -5 4 -13 2 -16
-4z"/>
<path d="M3115 2471 c-7 -23 -88 -109 -125 -133 -21 -14 -22 -16 -4 -12 42 11
158 143 141 161 -3 2 -8 -5 -12 -16z"/>
<path d="M1304 2298 c3 -10 1 -18 -4 -18 -6 0 -10 -9 -10 -20 0 -13 7 -20 19
-20 23 0 36 -16 21 -25 -12 -7 -4 -25 12 -25 15 0 3 52 -23 92 -11 18 -19 25
-15 16z"/>
<path d="M1955 2130 c3 -5 11 -10 16 -10 6 0 7 5 4 10 -3 6 -11 10 -16 10 -6
0 -7 -4 -4 -10z"/>
<path d="M2063 2104 c-7 -3 -13 -14 -13 -25 0 -10 -4 -19 -10 -19 -20 0 -9
-21 18 -33 15 -6 31 -17 35 -24 12 -19 30 -16 45 7 7 11 21 20 32 20 26 0 25
13 -4 45 -24 25 -77 40 -103 29z"/>
<path d="M2416 2081 c-3 -5 13 -11 37 -13 40 -5 55 -3 46 6 -11 9 -78 16 -83
7z"/>
<path d="M2033 1926 c4 -10 7 -20 7 -22 0 -2 7 -4 15 -4 8 0 15 -4 15 -10 0
-5 5 -10 11 -10 16 0 6 45 -11 45 -8 0 -21 5 -29 9 -11 7 -13 5 -8 -8z"/>
<path d="M1840 1840 c0 -19 3 -21 12 -12 9 9 9 15 0 24 -9 9 -12 7 -12 -12z"/>
<path d="M1790 1835 c-10 -12 -10 -15 4 -15 9 0 16 7 16 15 0 8 -2 15 -4 15
-2 0 -9 -7 -16 -15z"/>
<path d="M1895 1840 c-3 -5 3 -10 15 -10 12 0 18 5 15 10 -3 6 -10 10 -15 10
-5 0 -12 -4 -15 -10z"/>
<path d="M2110 1782 c0 -5 -6 -9 -12 -9 -7 0 -37 -5 -67 -12 -29 -6 -72 -9
-96 -5 -33 4 -44 2 -49 -11 -3 -10 -11 -13 -18 -9 -12 7 25 -38 65 -79 15 -16
21 -15 18 5 0 3 12 0 27 -7 35 -18 131 -35 137 -25 3 5 14 6 25 3 15 -4 20 0
20 14 0 13 8 19 25 21 14 1 25 -3 25 -8 0 -7 8 -6 23 1 12 7 51 14 87 15 36 2
101 5 145 8 48 2 82 0 86 -6 8 -12 119 0 119 13 0 5 -8 9 -17 10 -16 0 -43 5
-70 10 -4 1 -16 -1 -27 -6 -10 -4 -60 -3 -110 4 -51 6 -99 9 -108 6 -21 -8
-90 24 -81 38 3 6 1 7 -6 3 -6 -4 -18 0 -27 8 -9 9 -19 14 -24 11 -5 -3 -11
-1 -15 5 -7 12 -75 14 -75 2z"/>
<path d="M1573 1643 c-21 -8 -15 -30 10 -37 21 -7 21 -7 2 -15 -27 -11 -45 -3
-38 17 5 13 3 14 -7 5 -7 -6 -19 -9 -26 -6 -19 7 -18 -5 2 -24 9 -10 13 -25
10 -39 -3 -12 -2 -26 4 -29 5 -3 10 -13 10 -21 0 -15 40 -106 50 -114 4 -3 15
-21 26 -40 10 -19 21 -37 25 -40 16 -15 77 -125 70 -128 -11 -4 -1 -45 13 -54
5 -4 12 -22 14 -40 1 -18 12 -40 23 -50 22 -19 6 -31 -23 -17 -13 7 -15 5 -11
-11 6 -22 11 -24 32 -11 9 6 19 4 28 -4 15 -16 17 -45 3 -45 -7 0 -7 -6 0 -20
14 -26 34 -26 27 0 -3 11 -1 18 4 14 5 -3 9 -11 9 -18 0 -7 11 -23 25 -36 14
-13 25 -20 25 -16 0 4 10 1 23 -6 l22 -12 -25 -6 -25 -6 27 -6 c15 -3 25 -1
22 4 -3 5 23 6 62 2 50 -5 65 -4 60 4 -10 16 28 16 57 0 14 -7 72 -11 157 -11
164 1 195 5 246 32 21 12 43 21 47 21 12 0 81 32 87 41 3 3 19 15 35 25 17 11
51 41 75 68 25 27 53 57 63 67 9 11 17 23 17 27 0 5 12 19 26 33 38 36 65 84
58 104 -6 14 -3 16 14 11 17 -6 21 -4 16 8 -4 10 -1 16 7 16 7 0 10 3 7 6 -4
3 -18 -2 -32 -12 -25 -16 -28 -16 -46 1 -11 10 -23 15 -27 12 -3 -4 -1 -7 5
-7 6 0 16 -9 22 -20 9 -17 8 -19 -7 -13 -10 4 -29 17 -42 29 l-25 23 -11 -22
c-8 -17 -21 -23 -53 -25 -23 -2 -42 -8 -42 -13 0 -6 4 -8 9 -4 5 3 12 1 15 -4
11 -17 -10 -21 -30 -6 -26 19 -34 19 -28 -2 5 -17 5 -17 -9 0 -17 20 -35 23
-33 5 0 -7 -3 -13 -9 -13 -5 0 -10 8 -9 18 1 23 -17 22 -23 -3 -3 -11 -9 -17
-14 -14 -5 3 -9 -2 -9 -10 0 -9 9 -21 20 -28 23 -15 27 -40 5 -32 -8 4 -15 2
-15 -4 0 -6 -13 -24 -29 -40 -18 -17 -26 -33 -21 -38 5 -5 -4 -9 -23 -9 -24 0
-38 -7 -54 -29 -13 -17 -23 -36 -23 -44 0 -8 -5 -10 -12 -5 -7 4 -34 6 -61 5
-31 -1 -49 2 -51 10 -2 7 -7 22 -12 33 -6 18 -8 18 -11 3 -6 -24 -25 -23 -53
2 -16 14 -26 17 -30 9 -4 -6 -10 4 -14 23 -5 26 -9 30 -16 18 -8 -13 -10 -12
-10 3 0 9 -6 17 -12 18 -7 0 -28 20 -46 45 -26 36 -30 49 -22 64 5 10 10 24
10 30 0 15 -43 30 -51 18 -3 -5 -9 -3 -12 6 -5 11 0 16 14 16 29 0 16 15 -36
39 -45 21 -55 37 -34 58 13 13 -23 53 -63 71 -27 11 -32 20 -29 52 1 11 -9 15
-40 14 -25 0 -43 4 -46 13 -3 7 -9 10 -14 7 -6 -3 -17 0 -26 8 -12 9 -15 9 -9
1 4 -7 2 -13 -4 -13 -6 0 -8 14 -4 39 6 39 6 40 -40 62 -45 21 -48 21 -60 4
-12 -16 -13 -16 -19 -1 -7 16 -13 18 -34 9z m10 -87 c4 -10 1 -13 -8 -9 -8 3
-12 9 -9 14 7 12 11 11 17 -5z m37 -22 c0 -14 -4 -23 -9 -20 -5 3 -7 15 -4 26
7 28 13 25 13 -6z m1206 -299 c2 -10 5 -29 9 -42 3 -13 1 -23 -4 -23 -13 0
-17 8 -25 54 -5 28 -4 37 5 34 7 -2 13 -13 15 -23z m57 -15 c3 6 4 5 3 -2 -4
-18 -28 -16 -34 2 -4 13 -3 13 10 2 11 -9 18 -9 21 -2z m-242 -48 c-7 -2 -18
1 -23 6 -8 8 -4 9 13 5 13 -4 18 -8 10 -11z"/>
<path d="M2985 1340 c3 -6 -1 -13 -10 -16 -12 -5 -13 -9 -4 -14 6 -5 17 -3 24
3 13 13 9 37 -7 37 -5 0 -6 -5 -3 -10z"/>
<path d="M3117 1283 c-3 -5 -7 -35 -11 -68 -4 -33 -9 -82 -12 -108 l-6 -49 30
16 c65 34 201 7 236 -46 8 -13 13 -38 11 -58 -2 -19 -4 -41 -4 -47 -1 -7 -12
-13 -25 -13 -15 0 -26 -7 -29 -17 -4 -14 -5 -12 -6 5 -1 14 5 22 15 22 9 0 14
6 11 13 -2 6 -11 11 -21 9 -9 -2 -16 4 -16 13 0 18 -16 20 -24 3 -3 -7 -5 -1
-3 14 3 17 -4 36 -20 54 -12 15 -23 24 -23 19 0 -4 -6 -3 -12 1 -7 5 -35 9
-63 9 l-50 0 -9 -83 c-6 -53 -5 -100 1 -127 11 -47 9 -154 -2 -200 -15 -57
-78 -151 -149 -220 -99 -98 -201 -187 -234 -205 -15 -8 -41 -24 -57 -36 -42
-28 -150 -79 -212 -99 -38 -12 -70 -14 -125 -10 -83 7 -186 32 -208 50 -8 7
-28 13 -45 13 -16 0 -43 6 -60 13 -27 11 -54 17 -96 22 -8 1 -23 10 -33 20
-10 9 -21 17 -26 17 -14 0 -148 138 -155 159 -3 11 -15 23 -26 26 -17 6 -26
35 -20 68 1 4 -6 10 -14 13 -8 4 -15 12 -15 20 0 8 -5 14 -11 14 -6 0 -9 7 -5
15 3 8 1 15 -4 15 -6 0 -10 6 -10 14 0 8 -5 16 -12 18 -6 2 -13 15 -14 29 -2
13 -9 53 -15 89 -8 44 -10 129 -5 273 4 141 3 206 -4 202 -5 -3 -10 -12 -10
-19 0 -8 -6 -19 -13 -25 -14 -11 -37 -76 -43 -121 -5 -42 -6 -224 0 -240 5
-14 15 -90 22 -155 1 -16 3 -54 3 -83 1 -53 2 -54 85 -140 108 -112 178 -198
205 -250 12 -23 20 -42 17 -42 -5 0 -72 27 -111 45 -17 7 -51 23 -78 34 -26
11 -47 22 -47 24 0 2 26 2 58 1 l57 -3 -65 15 c-63 15 -132 42 -138 55 -1 3
-16 21 -32 39 -17 19 -30 40 -30 48 0 8 -12 29 -27 47 -16 18 -40 48 -56 66
-15 19 -36 45 -47 58 -11 13 -20 29 -20 36 0 7 -7 25 -15 42 -26 52 -14 220
16 239 5 3 9 12 9 20 0 14 7 28 89 193 23 46 40 85 38 88 -9 8 -101 -24 -167
-58 -74 -38 -197 -154 -254 -238 -20 -29 -36 -57 -36 -61 0 -4 -25 -24 -55
-45 -59 -39 -85 -77 -85 -123 0 -28 -6 -32 -107 -77 -60 -26 -171 -75 -248
-110 -77 -35 -180 -78 -230 -95 -50 -17 -117 -45 -150 -63 l-60 -32 -3 -117
-3 -118 625 0 624 0 16 35 c24 51 36 52 36 5 0 -29 4 -40 13 -37 6 2 12 16 11
30 -2 37 25 35 39 -3 l11 -30 613 0 c653 0 638 -1 696 50 16 14 57 45 91 70
34 25 90 65 124 90 34 25 85 61 113 81 27 20 98 81 156 135 124 115 219 179
312 209 21 6 20 5 -4 -32 -13 -21 -29 -43 -35 -50 -5 -7 -10 -15 -10 -19 0 -3
-9 -18 -20 -34 -11 -15 -16 -31 -12 -36 4 -5 3 -6 -2 -2 -8 7 -46 -32 -46 -47
0 -3 -13 -20 -30 -38 -16 -18 -30 -35 -30 -39 0 -4 -9 -10 -20 -13 -11 -3 -20
-12 -20 -19 0 -7 -11 -18 -25 -24 -14 -6 -25 -15 -25 -20 0 -6 -54 -51 -119
-97 -8 -5 -31 -27 -53 -48 -40 -39 -110 -71 -140 -63 -10 2 -18 0 -18 -6 0 -5
9 -12 20 -15 11 -3 18 -9 15 -13 -3 -5 -15 -6 -27 -2 -14 3 -19 2 -14 -6 5 -9
228 -12 872 -12 l864 0 0 123 0 122 -61 27 c-55 25 -61 30 -54 50 4 13 10 42
12 65 6 49 0 58 -114 191 -68 79 -106 132 -159 218 -39 64 -186 240 -236 282
-29 24 -75 55 -102 69 -65 33 -194 56 -271 48 -55 -6 -75 -1 -211 44 -121 41
-164 51 -217 51 -36 0 -68 -3 -70 -7z m253 -413 c0 -5 -7 -7 -15 -4 -11 5 -13
2 -9 -10 4 -11 1 -16 -10 -16 -14 0 -15 4 -6 20 11 20 40 28 40 10z"/>
<path d="M2450 1085 c0 -8 5 -15 10 -15 6 0 10 7 10 15 0 8 -4 15 -10 15 -5 0
-10 -7 -10 -15z"/>
<path d="M2705 61 c-3 -6 4 -9 15 -8 11 1 20 5 20 9 0 11 -28 10 -35 -1z"/>
<path d="M2760 60 c0 -5 5 -10 10 -10 6 0 10 5 10 10 0 6 -4 10 -10 10 -5 0
-10 -4 -10 -10z"/>
<path d="M2790 60 c0 -5 7 -10 16 -10 8 0 12 5 9 10 -3 6 -10 10 -16 10 -5 0
-9 -4 -9 -10z"/>
<path d="M2835 50 c3 -5 10 -10 16 -10 5 0 9 5 9 10 0 6 -7 10 -16 10 -8 0
-12 -4 -9 -10z"/>
<path d="M2835 10 c3 -5 8 -10 11 -10 2 0 4 5 4 10 0 6 -5 10 -11 10 -5 0 -7
-4 -4 -10z"/>
</g>
</svg>
