<svg width="32" height="32" viewBox="0 0 32 32" fill="none" xmlns="http://www.w3.org/2000/svg">
<rect width="32" height="32" rx="8" fill="#212121"/>
<path d="M11.096 22.192C9.99733 22.192 9.048 21.952 8.248 21.472C7.45867 20.9813 6.84533 20.304 6.408 19.44C5.97067 18.5653 5.752 17.552 5.752 16.4C5.752 15.2587 5.97067 14.256 6.408 13.392C6.84533 12.5173 7.45867 11.8347 8.248 11.344C9.048 10.8533 9.99733 10.608 11.096 10.608C12.376 10.608 13.416 10.9173 14.216 11.536C15.0267 12.144 15.544 12.9973 15.768 14.096H14.28C14.1093 13.4027 13.7573 12.848 13.224 12.432C12.7013 12.0053 11.992 11.792 11.096 11.792C10.296 11.792 9.59733 11.9787 9 12.352C8.40267 12.7147 7.93867 13.2427 7.608 13.936C7.288 14.6187 7.128 15.44 7.128 16.4C7.128 17.36 7.288 18.1867 7.608 18.88C7.93867 19.5627 8.40267 20.0907 9 20.464C9.59733 20.8267 10.296 21.008 11.096 21.008C11.992 21.008 12.7013 20.8053 13.224 20.4C13.7573 19.984 14.1093 19.4347 14.28 18.752H15.768C15.544 19.8293 15.0267 20.672 14.216 21.28C13.416 21.888 12.376 22.192 11.096 22.192ZM21.0756 22L16.8676 10.8H18.3236L21.8596 20.576L25.4276 10.8H26.8516L22.6436 22H21.0756Z" fill="white"/>
</svg>