<svg width="32" height="32" viewBox="0 0 32 32" fill="none" xmlns="http://www.w3.org/2000/svg">
<path d="M16.0001 0C7.16466 0 0 7.33526 0 16.3841C0 23.6231 4.58452 29.7645 10.9419 31.931C11.7415 32.0827 12.0351 31.5756 12.0351 31.1428C12.0351 30.7521 12.0202 29.4615 12.0133 28.0924C7.56209 29.0836 6.62283 26.1593 6.62283 26.1593C5.89499 24.2655 4.8463 23.762 4.8463 23.762C3.39461 22.7451 4.95573 22.766 4.95573 22.766C6.56242 22.8816 7.40842 24.4544 7.40842 24.4544C8.83547 26.9592 11.1514 26.235 12.0645 25.8164C12.2081 24.7574 12.6227 24.0347 13.0803 23.6255C9.52647 23.2112 5.7906 21.8064 5.7906 15.5284C5.7906 13.7396 6.41563 12.2781 7.43916 11.1307C7.27303 10.718 6.72537 9.05159 7.59415 6.7948C7.59415 6.7948 8.93774 6.35445 11.9953 8.47423C13.2716 8.11122 14.6404 7.92916 16.0001 7.92292C17.3599 7.92916 18.7297 8.11122 20.0084 8.47423C23.0623 6.35445 24.404 6.7948 24.404 6.7948C25.2749 9.05159 24.727 10.718 24.5608 11.1307C25.5868 12.2781 26.2075 13.7396 26.2075 15.5284C26.2075 21.8213 22.4645 23.2069 18.9017 23.6125C19.4756 24.1209 19.9869 25.118 19.9869 26.6466C19.9869 28.8388 19.9684 30.6032 19.9684 31.1428C19.9684 31.5788 20.2564 32.0897 21.0674 31.9288C27.4213 29.7599 32 23.6206 32 16.3841C32 7.33526 24.8364 0 16.0001 0ZM5.99257 23.3395C5.95733 23.4209 5.83227 23.4454 5.71834 23.3895C5.60229 23.336 5.53711 23.2251 5.57474 23.1434C5.60918 23.0596 5.7345 23.0362 5.85029 23.0924C5.9666 23.1458 6.03284 23.2579 5.99257 23.3395ZM6.7796 24.0587C6.70329 24.1311 6.55412 24.0975 6.45291 23.983C6.34825 23.8687 6.32864 23.716 6.40601 23.6425C6.4847 23.57 6.62937 23.6039 6.73429 23.7182C6.83895 23.8337 6.85935 23.9854 6.7796 24.0587ZM7.31953 24.9787C7.2215 25.0485 7.0612 24.9831 6.96211 24.8374C6.86407 24.6917 6.86407 24.517 6.96422 24.447C7.06358 24.377 7.2215 24.4399 7.32191 24.5845C7.41968 24.7327 7.41968 24.9074 7.31953 24.9787ZM8.23267 26.0443C8.14497 26.1433 7.95818 26.1168 7.82146 25.9816C7.68156 25.8495 7.64261 25.662 7.73058 25.563C7.81934 25.4637 8.00719 25.4916 8.14497 25.6257C8.28381 25.7575 8.3262 25.9464 8.23267 26.0443ZM9.41281 26.404C9.37413 26.5324 9.19423 26.5907 9.013 26.5362C8.83203 26.48 8.7136 26.3297 8.75016 26.2C8.78778 26.0709 8.96848 26.0101 9.15104 26.0684C9.33174 26.1243 9.45044 26.2735 9.41281 26.404ZM10.7559 26.5566C10.7604 26.6917 10.6067 26.8038 10.4165 26.8062C10.2252 26.8106 10.0704 26.7012 10.0683 26.5683C10.0683 26.4318 10.2185 26.3209 10.4098 26.3176C10.6001 26.3138 10.7559 26.4223 10.7559 26.5566ZM12.0753 26.5048C12.0981 26.6367 11.9658 26.7721 11.7769 26.8082C11.5912 26.8429 11.4192 26.7615 11.3957 26.6307C11.3726 26.4956 11.5072 26.3602 11.6927 26.3252C11.8819 26.2916 12.0512 26.3708 12.0753 26.5048Z" fill="#212121"/>
</svg>