<svg width="32" height="32" viewBox="0 0 32 32" fill="none" xmlns="http://www.w3.org/2000/svg">
<path d="M10.0669 29C22.1394 29 28.7444 18.9957 28.7444 10.3226C28.7444 10.0413 28.7381 9.75382 28.7256 9.47256C30.0105 8.54336 31.1193 7.39242 32 6.0738C30.8033 6.6062 29.5329 6.95389 28.2319 7.10502C29.6017 6.28394 30.6274 4.99402 31.1187 3.47442C29.8301 4.23814 28.4208 4.77688 26.9513 5.06754C25.9611 4.01548 24.652 3.31888 23.2263 3.08546C21.8005 2.85204 20.3376 3.0948 19.0637 3.77619C17.7897 4.45759 16.7757 5.53967 16.1785 6.85515C15.5812 8.17062 15.4339 9.64622 15.7594 11.0538C13.15 10.9228 10.5973 10.245 8.26667 9.06422C5.93603 7.88336 3.87959 6.22598 2.23063 4.19942C1.39253 5.64439 1.13607 7.35429 1.51337 8.98149C1.89067 10.6088 2.87342 12.0314 4.26187 12.96C3.21951 12.927 2.19997 12.6463 1.2875 12.1413V12.2226C1.28657 13.739 1.8108 15.2088 2.77108 16.3824C3.73136 17.556 5.06843 18.3608 6.555 18.66C5.58941 18.9242 4.57597 18.9628 3.59313 18.7726C4.01261 20.0766 4.82877 21.2172 5.92769 22.0352C7.0266 22.8531 8.35347 23.3076 9.72313 23.335C7.39787 25.1616 4.52557 26.1522 1.56875 26.1476C1.04438 26.1468 0.520532 26.1146 0 26.0513C3.00381 27.9784 6.49804 29.0019 10.0669 29Z" fill="#212121"/>
</svg>